<svg xmlns="http://www.w3.org/2000/svg" fill="none" viewBox="0 0 236 78" height="78" width="236">
<g clip-path="url(#clip0_1_4)">
<mask height="78" width="236" y="0" x="0" maskUnits="userSpaceOnUse" style="mask-type:luminance" id="mask0_1_4">
<path fill="white" d="M236 0H0V78H236V0Z"></path>
</mask>
<g mask="url(#mask0_1_4)">
<path fill="#002930" d="M221.8 23.0296L221.746 22.9759C221.692 22.9222 221.639 22.8551 221.572 22.8014L213.218 14.4405C212.279 13.4608 210.965 12.8434 209.504 12.8434H200.882C199.018 12.8434 197.395 13.85 196.483 15.3396L195.585 14.4405C194.646 13.4608 193.332 12.8434 191.871 12.8434H182.444C181.331 12.8434 180.299 13.2058 179.454 13.8097C178.596 13.1923 177.55 12.8434 176.45 12.8434H167.292C165.455 12.8434 163.792 13.8231 162.88 15.3665L161.955 14.4405C161.016 13.4608 159.702 12.8434 158.241 12.8434H148.868C147.594 12.8434 146.427 13.3131 145.529 14.0915C144.63 13.3131 143.464 12.8434 142.19 12.8434H134.265C131.677 12.8434 129.545 14.7625 129.183 17.2588L126.381 14.4539C125.415 13.4473 124.074 12.8434 122.666 12.8434H114.594C111.765 12.8434 109.458 15.1517 109.458 17.9835V18.99L104.913 14.4405V14.4539C103.961 13.4608 102.633 12.8434 101.185 12.8434H89.7068C87.3736 12.8434 85.3354 14.427 84.732 16.6817L83.6057 20.9897L79.1941 16.5743C77.1157 14.4673 73.75 12.8434 68.3193 12.8434H51.6116C50.2305 12.8434 48.9834 13.3937 48.0582 14.2794C47.0123 13.3937 45.6714 12.8434 44.1964 12.8434H18.7995C15.5143 12.8434 12.8325 15.5275 12.8325 18.8155V40.9057C12.8325 45.3881 14.388 49.0788 17.2039 51.7495L17.1905 51.7629L25.598 60.1776L25.6114 60.1641C28.8698 63.3448 33.8714 65.1431 40.187 65.1431C46.3418 65.1431 51.1691 63.4656 54.347 60.446L56.412 62.5127C57.3507 63.5058 58.6782 64.1232 60.1398 64.1232H77.0084C80.7898 64.1232 83.5654 63.3314 85.5902 62.1235L85.9657 62.4993C86.9311 63.5327 88.272 64.1232 89.7068 64.1232H97.5243C99.9245 64.1232 101.99 62.4859 102.526 60.1507L102.593 59.842L105.261 62.5127C106.213 63.5058 107.527 64.1366 108.976 64.1366H118.161C119.046 64.1366 119.877 63.9085 120.628 63.5058C121.366 63.9085 122.197 64.1366 123.095 64.1366H131.074C133.662 64.1366 135.794 62.2175 136.156 59.7213L138.958 62.5261C139.924 63.5461 141.265 64.15 142.686 64.15H150.691C151.965 64.15 153.132 63.6803 154.03 62.9019C154.929 63.6803 156.095 64.15 157.369 64.15H166.742C168.606 64.15 170.242 63.1435 171.14 61.6404L172.012 62.5127C172.964 63.5327 174.305 64.1366 175.766 64.1366H185.475C187.191 64.1366 188.773 63.2911 189.739 61.8685C190.034 61.4391 190.235 60.9694 190.382 60.4862C193.641 63.479 198.522 65.17 204.65 65.17C216.235 65.17 223.154 59.2918 223.154 49.4546V26.5189C223.167 25.1634 222.645 23.9422 221.8 23.0296Z"></path>
<path fill="white" d="M68.4802 52.1924H51.6116C50.6595 52.1924 49.8818 51.414 49.8818 50.4611V17.9835C49.8818 17.0306 50.6595 16.2522 51.6116 16.2522H68.3193C75.9759 16.2522 79.1002 20.0771 79.1002 25.2574V26.4921C79.1002 29.8338 77.3705 33.0681 72.5834 33.9941C77.4375 35.0141 79.1539 37.819 79.1539 41.4425V43.2275C79.1539 48.3541 76.1368 52.1924 68.4802 52.1924ZM66.8577 26.5592C66.8577 25.2037 66.1068 24.6669 64.6452 24.6669H62.7009V31.2429H64.6452C66.1068 31.2429 66.8577 30.6524 66.8577 29.3506V26.5592ZM66.8577 39.1879C66.8577 37.8458 66.1068 37.2419 64.6452 37.2419H62.7009V43.8716H64.6452C66.1068 43.8716 66.8577 43.2811 66.8577 41.9257V39.1879Z"></path>
<path fill="white" d="M98.7714 50.7966L97.9668 46.8376H91.6109L90.6857 50.8369C90.4979 51.6153 89.8007 52.1789 89.0095 52.1789H81.192C80.0657 52.1789 79.2343 51.1053 79.5159 50.0182L88.0441 17.5406C88.2452 16.7756 88.9291 16.2522 89.7202 16.2522H101.172C101.963 16.2522 102.647 16.789 102.848 17.5406L111.322 50.0182C111.604 51.1187 110.786 52.1789 109.646 52.1789H100.461C99.6429 52.1924 98.9323 51.6018 98.7714 50.7966ZM95.1643 30.0619L93.22 39.8321H96.6661L95.1643 30.0619Z"></path>
<path fill="white" d="M134.171 52.1924C133.555 52.1924 132.991 51.8703 132.683 51.3334L126.273 40.2615L124.275 36.544V50.4611C124.275 51.414 123.498 52.1924 122.546 52.1924H114.567C113.615 52.1924 112.837 51.414 112.837 50.4611V17.9835C112.837 17.0306 113.615 16.2522 114.567 16.2522H122.64C123.243 16.2522 123.806 16.5743 124.128 17.0977L130.9 28.4515L132.522 31.3637V17.9835C132.522 17.0306 133.3 16.2522 134.252 16.2522H142.177C143.129 16.2522 143.906 17.0306 143.906 17.9835V50.4611C143.906 51.414 143.129 52.1924 142.177 52.1924H134.171Z"></path>
<path fill="white" d="M165.616 50.9845L161.955 39.5637L159.957 42.8517V50.4611C159.957 51.414 159.179 52.1924 158.227 52.1924H148.854C147.902 52.1924 147.125 51.414 147.125 50.4611V17.9835C147.125 17.0306 147.902 16.2522 148.854 16.2522H158.227C159.179 16.2522 159.957 17.0306 159.957 17.9835V30.6659L165.71 17.299C165.978 16.6683 166.608 16.2522 167.292 16.2522H176.45C177.737 16.2522 178.569 17.6077 177.992 18.7619L171.328 32.0079L178.555 49.8035C179.011 50.9442 178.18 52.1789 176.96 52.1789H167.252C166.514 52.1924 165.844 51.6958 165.616 50.9845Z"></path>
<path fill="white" d="M196.135 53.2123C185.676 53.2123 180.714 48.0857 180.714 40.9057V17.9835C180.714 17.0306 181.492 16.2522 182.444 16.2522H191.871C192.823 16.2522 193.6 17.0306 193.6 17.9835V40.6373C193.6 42.7175 194.485 43.7374 196.43 43.7106C197.958 43.6837 199.152 42.3685 199.152 40.8386V17.9835C199.152 17.0306 199.93 16.2522 200.882 16.2522H209.504C210.456 16.2522 211.233 17.0306 211.233 17.9835V40.9057C211.233 48.0857 206.715 53.2123 196.135 53.2123Z"></path>
<path fill="white" d="M31.6589 53.2123C21.1998 53.2123 16.2384 48.0857 16.2384 40.9057V17.9835C16.2384 17.0306 17.0161 16.2522 17.9682 16.2522H27.3948C28.3468 16.2522 29.1245 17.0306 29.1245 17.9835V40.6373C29.1245 42.7175 30.0095 43.7374 31.9539 43.7106C33.4825 43.6837 34.6759 42.3685 34.6759 40.8386V17.9835C34.6759 17.0306 35.4536 16.2522 36.4057 16.2522H45.0277C45.9798 16.2522 46.7575 17.0306 46.7575 17.9835V40.9057C46.7441 48.0857 42.2252 53.2123 31.6589 53.2123Z"></path>
</g>
</g>
<defs>
<clipPath id="clip0_1_4">
<rect fill="white" height="78" width="236"></rect>
</clipPath>
</defs>
</svg>
